<svg xmlns="http://www.w3.org/2000/svg" viewBox="0 0 900 700" role="img" aria-labelledby="title desc">
  <title id="title">Wedding Apocalypse</title>
  <desc id="desc">A wedding buffet and dance floor under zombie-green lights.</desc>
  <rect width="900" height="700" fill="#151915"/>
  <path d="M90 95h720v460H90z" fill="#26251f" stroke="#3b463e" stroke-width="10"/>
  <path d="M0 555h900v145H0z" fill="#101410"/>
  <g fill="#d7ef77" opacity=".75">
    <circle cx="190" cy="170" r="32"/>
    <circle cx="450" cy="145" r="42"/>
    <circle cx="710" cy="170" r="32"/>
  </g>
  <path d="M130 390h300v80H130z" fill="#3b2f25" stroke="#101410" stroke-width="8"/>
  <g fill="#f0bd5f" stroke="#101410" stroke-width="5">
    <circle cx="180" cy="390" r="23"/>
    <circle cx="245" cy="390" r="23"/>
    <circle cx="310" cy="390" r="23"/>
    <circle cx="375" cy="390" r="23"/>
  </g>
  <path d="M530 340c65-65 140-60 205 0v105H530z" fill="#2e382f" stroke="#101410" stroke-width="8"/>
  <path d="M570 310l135 145M705 310L570 455" stroke="#d7ef77" stroke-width="10" stroke-linecap="round"/>
  <g fill="#87a36c" stroke="#101410" stroke-width="7">
    <circle cx="715" cy="500" r="26"/>
    <path d="M688 530h54l18 62h-90z"/>
  </g>
</svg>
